<?xml version="1.0" encoding="iso-8859-1"?>
<!-- Generator: Adobe Illustrator 18.0.0, SVG Export Plug-In . SVG Version: 6.00 Build 0)  -->
<!DOCTYPE svg PUBLIC "-//W3C//DTD SVG 1.1//EN" "http://www.w3.org/Graphics/SVG/1.1/DTD/svg11.dtd">
<svg version="1.1" id="Capa_1" xmlns="http://www.w3.org/2000/svg" xmlns:xlink="http://www.w3.org/1999/xlink" x="0px" y="0px"
	 viewBox="0 0 298.5 298.5" style="enable-background:new 0 0 298.5 298.5;" xml:space="preserve">
<g>
	<path d="M141.44,148.946l32.8-12.533c-7.104-5.939-15.155-10.751-23.881-14.179c-10.071,6.497-21.529,9.968-33.541,9.968
		c-12.012,0-23.47-3.471-33.541-9.968c-28.552,11.217-49.954,37.199-54.202,69.215l-7.874,59.353
		c-0.543,4.091,0.706,8.218,3.425,11.321c2.719,3.104,6.646,4.884,10.773,4.884h107.543c-12.796-24.051-21.958-54.054-24.581-80.727
		C116.77,170.099,126.26,154.747,141.44,148.946z"/>
	<ellipse cx="116.818" cy="56.101" rx="47.538" ry="56.101"/>
	<path d="M267.03,167.629l-53.452-20.425c-1.859-0.71-3.816-1.066-5.774-1.066c-1.957,0-3.915,0.355-5.774,1.066l-53.452,20.425
		c-6.805,2.6-11.027,9.444-10.314,16.694c4.668,47.461,33.949,114.177,69.54,114.177c35.59,0,64.871-66.716,69.539-114.177
		C278.058,177.062,273.846,170.233,267.03,167.629z"/>
</g>
<g>
</g>
<g>
</g>
<g>
</g>
<g>
</g>
<g>
</g>
<g>
</g>
<g>
</g>
<g>
</g>
<g>
</g>
<g>
</g>
<g>
</g>
<g>
</g>
<g>
</g>
<g>
</g>
<g>
</g>
</svg>
